<?xml version="1.0" encoding="UTF-8"?>
<svg version="1.1" xmlns="http://www.w3.org/2000/svg" width="1500" height="1500">
<path d="M0 0 C69.64894044 -0.01713192 139.29788114 -0.03303243 208.94682312 -0.04234314 C210.49197908 -0.04255023 210.49197908 -0.04255023 212.06835031 -0.04276149 C234.45291471 -0.0457541 256.83747913 -0.04852432 279.22204359 -0.05106533 C290.19872894 -0.05231271 301.17541427 -0.05360926 312.15209961 -0.05493164 C313.24443734 -0.0550624 314.33677507 -0.05519316 315.46221395 -0.05532788 C350.89606816 -0.05959257 386.32992078 -0.06710637 421.76377402 -0.07629722 C458.16329738 -0.08572144 494.56281986 -0.0918835 530.96234442 -0.09391499 C536.0983367 -0.09420316 541.23432899 -0.0945288 546.37032127 -0.09487724 C547.88664237 -0.09497838 547.88664237 -0.09497838 549.43359622 -0.09508156 C565.73483947 -0.0962653 582.03608 -0.10090879 598.33732214 -0.10683203 C614.70808641 -0.11270721 631.07884797 -0.11497101 647.44961325 -0.11350138 C657.18706983 -0.11273826 666.92451656 -0.11479111 676.66197137 -0.12079754 C683.1565149 -0.1245315 689.65105194 -0.12467495 696.14559591 -0.12183181 C699.85252865 -0.1203138 703.55944266 -0.12042035 707.26637343 -0.12488318 C711.24911041 -0.12964191 715.23182 -0.12676084 719.2145586 -0.12304783 C720.37945408 -0.12567484 721.54434955 -0.12830186 722.74454489 -0.13100848 C724.32639967 -0.12763754 724.32639967 -0.12763754 725.94021112 -0.1241985 C727.30777124 -0.12443247 727.30777124 -0.12443247 728.70295884 -0.12467116 C731 0 731 0 734 1 C736.5250593 1.21017835 739.03315948 1.37470054 741.5625 1.5 C742.30902832 1.54060547 743.05555664 1.58121094 743.82470703 1.62304688 C746.21628066 1.75261744 748.60809702 1.87667127 751 2 C777.79949384 3.40673989 777.79949384 3.40673989 787.6328125 5.52734375 C789.94148411 5.98831614 792.22375678 6.30032772 794.5625 6.5625 C798 7 798 7 799 8 C800.41276042 8.27213542 801.83603144 8.49029247 803.26171875 8.68359375 C804.56979492 8.86825195 804.56979492 8.86825195 805.90429688 9.05664062 C807.74006908 9.30785156 809.57600381 9.55787794 811.41210938 9.80664062 C816.17260032 10.48072335 820.45478277 11.38775672 825 13 C829.2298727 14.11979372 833.48987256 15.12201962 837.74414062 16.14453125 C841.98814768 17.18245045 845.95905041 18.32385049 850 20 C852.92245429 20.92688835 855.86672839 21.77559058 858.8125 22.625 C859.60076172 22.85445312 860.38902344 23.08390625 861.20117188 23.3203125 C863.1334682 23.88243507 865.06664684 24.44152312 867 25 C867 25.66 867 26.32 867 27 C867.95648437 27.08894531 868.91296875 27.17789063 869.8984375 27.26953125 C874.76857866 27.97033258 879.10221341 29.81419989 883.625 31.6875 C884.50148193 32.04400635 885.37796387 32.4005127 886.28100586 32.76782227 C892.45831245 35.30234899 898.53998034 37.99502313 904.56640625 40.87109375 C907.05393894 42.0803973 907.05393894 42.0803973 910 43 C910 43.66 910 44.32 910 45 C910.94875 45.144375 911.8975 45.28875 912.875 45.4375 C916 46 916 46 918 47 C918 47.66 918 48.32 918 49 C919.98 49.33 921.96 49.66 924 50 C924 50.66 924 51.32 924 52 C924.763125 52.144375 925.52625 52.28875 926.3125 52.4375 C929 53 929 53 932 54 C932 54.66 932 55.32 932 56 C932.721875 56.103125 933.44375 56.20625 934.1875 56.3125 C940.24545636 57.79333378 945.61674664 62.30956032 950.828125 65.68359375 C951.42109375 66.06644531 952.0140625 66.44929688 952.625 66.84375 C953.19605469 67.21371094 953.76710938 67.58367187 954.35546875 67.96484375 C955.85455028 68.90844614 957.39452449 69.78627445 958.9375 70.65625 C959.618125 71.0996875 960.29875 71.543125 961 72 C961 72.66 961 73.32 961 74 C961.515625 74.0825 962.03125 74.165 962.5625 74.25 C966.04455732 75.32140225 968.87200885 77.13523605 972 79 C972 79.66 972 80.32 972 81 C972.66 81.20625 973.32 81.4125 974 81.625 C978.12906081 83.51748621 981.44358652 86.20362649 985 89 C986.485 90.11375 986.485 90.11375 988 91.25 C988.66 91.8275 989.32 92.405 990 93 C990 93.66 990 94.32 990 95 C990.55171875 95.08378906 991.1034375 95.16757812 991.671875 95.25390625 C994.75418854 96.24169465 996.73901284 97.90741827 999.25 99.9375 C1000.14203125 100.64777344 1001.0340625 101.35804688 1001.953125 102.08984375 C1002.62859375 102.72019531 1003.3040625 103.35054688 1004 104 C1004 104.66 1004 105.32 1004 106 C1004.5671875 106.26039063 1005.134375 106.52078125 1005.71875 106.7890625 C1008.20474595 108.10868364 1010.28605357 109.63872009 1012.5 111.375 C1013.2528125 111.96023438 1014.005625 112.54546875 1014.78125 113.1484375 C1016.9998301 114.99985821 1019.06002137 116.85720542 1021 119 C1021 119.66 1021 120.32 1021 121 C1021.59385498 121.2686084 1022.18770996 121.5372168 1022.79956055 121.81396484 C1025.00987445 123.00532232 1026.44647183 124.20211898 1028.20703125 125.9765625 C1028.7904126 126.56123291 1029.37379395 127.14590332 1029.97485352 127.74829102 C1030.58127686 128.36760498 1031.1877002 128.98691895 1031.8125 129.625 C1032.43761475 130.25656006 1033.06272949 130.88812012 1033.70678711 131.53881836 C1037.47893001 135.37395334 1041.1358258 139.27396313 1044.6015625 143.390625 C1045.97113527 144.96678137 1047.41644801 146.38388763 1048.9375 147.8125 C1051 150 1051 150 1051 153 C1051.99 153.33 1052.98 153.66 1054 154 C1054 154.66 1054 155.32 1054 156 C1054.58265625 156.2371875 1055.1653125 156.474375 1055.765625 156.71875 C1058.47552837 158.2726806 1059.86530802 160.01929431 1061.75 162.5 C1062.36359375 163.2940625 1062.9771875 164.088125 1063.609375 164.90625 C1065 167 1065 167 1065 169 C1065.66 169 1066.32 169 1067 169 C1068.58759946 171.00892394 1070.05293845 173.01758846 1071.5 175.125 C1072.39276612 176.40527094 1073.28600988 177.68520891 1074.1796875 178.96484375 C1074.64084961 179.6285498 1075.10201172 180.29225586 1075.57714844 180.97607422 C1076.98824109 182.98327361 1078.42886219 184.96508154 1079.8828125 186.94140625 C1080.34236328 187.56966309 1080.80191406 188.19791992 1081.27539062 188.84521484 C1082.16247701 190.05613269 1083.05427901 191.26361266 1083.95117188 192.46728516 C1087 196.66371968 1087 196.66371968 1087 200 C1087.66 200 1088.32 200 1089 200 C1090.2890625 201.64453125 1090.2890625 201.64453125 1091.625 203.8125 C1092.29402344 204.87404297 1092.29402344 204.87404297 1092.9765625 205.95703125 C1094 208 1094 208 1094 211 C1094.66 211 1095.32 211 1096 211 C1100.76291747 219.28070678 1105.51142084 227.56604553 1110 236 C1110.38414063 236.69867188 1110.76828125 237.39734375 1111.1640625 238.1171875 C1112 240 1112 240 1112 243 C1112.66 243 1113.32 243 1114 243 C1114.21914062 243.49886719 1114.43828125 243.99773437 1114.6640625 244.51171875 C1116.68012137 249.07653497 1118.75339168 253.60820755 1120.875 258.125 C1125.83447275 268.84547644 1130.08853558 279.85667247 1134 291 C1134.30035156 291.83660156 1134.60070313 292.67320312 1134.91015625 293.53515625 C1135.18730469 294.32792969 1135.46445313 295.12070312 1135.75 295.9375 C1135.99234375 296.62714844 1136.2346875 297.31679688 1136.484375 298.02734375 C1137 300 1137 300 1137 304 C1137.66 304 1138.32 304 1139 304 C1139.84306996 306.87245978 1140.67465502 309.7474459 1141.5 312.625 C1141.85771484 313.83736328 1141.85771484 313.83736328 1142.22265625 315.07421875 C1143.48325939 319.50433836 1144.30141867 323.34308157 1144 328 C1144.66 328 1145.32 328 1146 328 C1146.19335938 329.16917969 1146.38671875 330.33835937 1146.5859375 331.54296875 C1146.84866686 333.09119532 1147.11170392 334.6393697 1147.375 336.1875 C1147.50132813 336.95642578 1147.62765625 337.72535156 1147.7578125 338.51757812 C1148.45938916 342.60426217 1149.38276161 346.163288 1151 350 C1151.37890625 352.203125 1151.37890625 352.203125 1151.5625 354.25 C1151.58237411 357.78917514 1151.58237411 357.78917514 1153 359 C1153.28643064 360.83705518 1153.51519727 362.68317519 1153.71875 364.53125 C1153.84636719 365.65144531 1153.97398438 366.77164062 1154.10546875 367.92578125 C1154.36848958 370.30859375 1154.63151042 372.69140625 1154.89453125 375.07421875 C1155.02214844 376.19441406 1155.14976563 377.31460937 1155.28125 378.46875 C1155.39533203 379.50451172 1155.50941406 380.54027344 1155.62695312 381.60742188 C1155.75093673 383.94751359 1155.75093673 383.94751359 1157 385 C1157.2176892 387.1334297 1157.37197628 389.27338018 1157.5 391.4140625 C1157.54060547 392.06192719 1157.58121094 392.70979187 1157.62304688 393.37728882 C1157.75308879 395.45961626 1157.87700457 397.54224533 1158 399.625 C1158.12360933 401.68628211 1158.24862493 403.74744723 1158.37695312 405.80844116 C1158.49412675 407.69452392 1158.6065635 409.58089919 1158.71875 411.46728516 C1159.00079021 415.00992564 1159.48118317 418.48521692 1160 422 C1160.12702184 423.38621461 1160.23614269 424.77435633 1160.31640625 426.1640625 C1160.35846191 426.88650146 1160.40051758 427.60894043 1160.44384766 428.35327148 C1160.50258057 429.4777771 1160.50258057 429.4777771 1160.5625 430.625 C1160.6042334 431.41914307 1160.6459668 432.21328613 1160.68896484 433.03149414 C1161.18481337 443.05269403 1161.0547057 452.9819986 1160.5625 463 C1160.52334473 463.8139624 1160.48418945 464.6279248 1160.44384766 465.46655273 C1160.40179199 466.24071533 1160.35973633 467.01487793 1160.31640625 467.8125 C1160.27974854 468.49957031 1160.24309082 469.18664062 1160.20532227 469.89453125 C1160 472 1160 472 1159.51367188 474.37573242 C1158.93836147 477.3149014 1158.68553366 480.18911115 1158.46484375 483.17578125 C1158.37783203 484.33271484 1158.29082031 485.48964844 1158.20117188 486.68164062 C1158.11416016 487.87982422 1158.02714844 489.07800781 1157.9375 490.3125 C1157.80118164 492.1387793 1157.80118164 492.1387793 1157.66210938 494.00195312 C1157.4386429 497.00110842 1157.21803973 500.0004461 1157 503 C1156.34 503 1155.68 503 1155 503 C1155.04125 504.175625 1155.0825 505.35125 1155.125 506.5625 C1155.13596103 513.41314114 1154.17778888 520.2599527 1153 527 C1152.67 527.33 1152.34 527.66 1152 528 C1151.64979331 529.70100391 1151.34497947 531.41144686 1151.0625 533.125 C1150.29785583 537.52595197 1149.24829946 541.7089706 1148 546 C1147.49004732 548.4860193 1147.01575591 550.97570182 1146.5625 553.47265625 C1145.91054569 556.40192318 1144.96462 559.15800129 1144 562 C1143.16473827 564.76421838 1142.36575919 567.53883708 1141.5625 570.3125 C1138.72607326 580.01818772 1135.49432913 589.51032445 1132 599 C1131.34 599 1130.68 599 1130 599 C1129.91878906 599.95003906 1129.83757812 600.90007813 1129.75390625 601.87890625 C1129.03608042 606.90368704 1126.96941848 611.32269378 1124.9375 615.9375 C1124.56044922 616.81212891 1124.18339844 617.68675781 1123.79492188 618.58789062 C1122.87077032 620.72864676 1121.9390249 622.86573647 1121 625 C1120.34 625 1119.68 625 1119 625 C1118.773125 626.299375 1118.54625 627.59875 1118.3125 628.9375 C1117.34020164 633.27908226 1115.75730996 636.65563318 1113.5 640.46484375 C1111.68287675 643.53597133 1109.99900931 646.66786286 1108.3125 649.8125 C1107.73113281 650.89144531 1107.14976563 651.97039063 1106.55078125 653.08203125 C1105.33289475 655.37362121 1104.14461993 657.67129049 1103 660 C1102.34 660 1101.68 660 1101 660 C1100.89558594 660.73089844 1100.79117187 661.46179688 1100.68359375 662.21484375 C1099.94074154 665.24143592 1098.85981757 667.03570879 1097.0625 669.5625 C1095.1280696 672.30492344 1093.42733641 674.95915286 1092 678 C1091.34 678 1090.68 678 1090 678 C1089.67 679.32 1089.34 680.64 1089 682 C1088.34 682 1087.68 682 1087 682 C1086.855625 682.598125 1086.71125 683.19625 1086.5625 683.8125 C1086.1127561 685.56150404 1085.57107659 687.28677023 1085 689 C1084.34 689 1083.68 689 1083 689 C1082.731875 689.721875 1082.46375 690.44375 1082.1875 691.1875 C1079.12676056 698.43661972 1079.12676056 698.43661972 1076 700 C1074.86649466 702.01669827 1074.86649466 702.01669827 1074 704 C1073.34 704 1072.68 704 1072 704 C1071.7421875 704.72574219 1071.484375 705.45148437 1071.21875 706.19921875 C1069.94757501 709.12047667 1068.45983598 711.30872649 1066.5 713.8125 C1065.58734375 714.99779297 1065.58734375 714.99779297 1064.65625 716.20703125 C1064.1096875 716.79871094 1063.563125 717.39039063 1063 718 C1062.34 718 1061.68 718 1061 718 C1060.67 719.32 1060.34 720.64 1060 722 C1059.34 722 1058.68 722 1058 722 C1057.72800781 722.57878906 1057.45601562 723.15757812 1057.17578125 723.75390625 C1054.16422497 729.50687922 1049.84217551 734.69584399 1045 739 C1044.34 739 1043.68 739 1043 739 C1042.67 739.99 1042.34 740.98 1042 742 C1041.34 742 1040.68 742 1040 742 C1039.74025391 742.58426758 1039.48050781 743.16853516 1039.21289062 743.77050781 C1037.915344 746.15561164 1036.50658878 747.75190637 1034.59375 749.671875 C1033.93246094 750.33574219 1033.27117187 750.99960937 1032.58984375 751.68359375 C1031.90019531 752.36550781 1031.21054688 753.04742188 1030.5 753.75 C1029.81035156 754.44738281 1029.12070313 755.14476562 1028.41015625 755.86328125 C1027.74886719 756.52199219 1027.08757812 757.18070313 1026.40625 757.859375 C1025.80103516 758.46233398 1025.19582031 759.06529297 1024.57226562 759.68652344 C1023 761 1023 761 1021 761 C1020.67 761.99 1020.34 762.98 1020 764 C1018.46875 765.54296875 1018.46875 765.54296875 1016.5 767.1875 C1012.53968292 770.53303861 1008.70154669 773.99004337 1004.8828125 777.49609375 C1003 779 1003 779 1001 779 C1001 779.66 1001 780.32 1001 781 C1000.0409375 781.1546875 1000.0409375 781.1546875 999.0625 781.3125 C998.381875 781.539375 997.70125 781.76625 997 782 C996.67 782.99 996.34 783.98 996 785 C993.92933918 786.78186573 991.87173701 788.43321572 989.6875 790.0625 C989.10548828 790.50916016 988.52347656 790.95582031 987.92382812 791.41601562 C985.04703603 793.59560103 982.22300369 795.39998154 979 797 C978.67 797.66 978.34 798.32 978 799 C974.8074307 801.12837953 971.59175173 802.66592079 968 804 C968 804.66 968 805.32 968 806 C960.57142857 810.42857143 960.57142857 810.42857143 957 811 C957 811.66 957 812.32 957 813 C955.35546875 814.2890625 955.35546875 814.2890625 953.1875 815.625 C952.47980469 816.07101562 951.77210938 816.51703125 951.04296875 816.9765625 C949 818 949 818 946 818 C946 818.66 946 819.32 946 820 C943.35261084 821.4606285 942.10551666 822 939 822 C939 822.66 939 823.32 939 824 C937.99646484 824.49306641 937.99646484 824.49306641 936.97265625 824.99609375 C932.14998438 827.38477284 927.35453084 829.7918307 922.62890625 832.3671875 C921.88310303 832.77138916 921.1372998 833.17559082 920.36889648 833.59204102 C918.89701089 834.39260201 917.42890642 835.20016283 915.96508789 836.01538086 C911.96112605 838.18659947 908.61436239 839.55881488 904 840 C904 840.66 904 841.32 904 842 C902.08717875 842.84212256 900.16957527 843.67338864 898.25 844.5 C897.18265625 844.9640625 896.1153125 845.428125 895.015625 845.90625 C892 847 892 847 888 847 C888 847.66 888 848.32 888 849 C886.865625 849.39832031 885.73125 849.79664063 884.5625 850.20703125 C883.04165157 850.74214459 881.52081909 851.27730327 880 851.8125 C879.25621094 852.07353516 878.51242187 852.33457031 877.74609375 852.60351562 C874.09522724 853.88925557 870.45747616 855.19751706 866.83984375 856.57421875 C863.45094382 857.85354734 860.03349485 858.96000154 856.5625 860 C852.67446013 861.17136775 848.82767616 862.39529659 845 863.75 C841.89892532 864.80653557 839.31160452 865.32047786 836 865 C836 865.66 836 866.32 836 867 C835.12674072 867.176521 834.25348145 867.35304199 833.35375977 867.53491211 C830.12347298 868.18975526 826.89391499 868.84798266 823.66479492 869.50854492 C822.26533382 869.79409284 820.86559372 870.07827685 819.46557617 870.36108398 C817.45677501 870.7671107 815.44901838 871.1779835 813.44140625 871.58984375 C812.23170166 871.83597412 811.02199707 872.08210449 809.77563477 872.33569336 C807.1071215 872.71851247 807.1071215 872.71851247 806 874 C803.69351241 874.35415745 801.37915551 874.65746472 799.0625 874.9375 C794.73672816 875.46116923 790.53176598 876.07933817 786.2734375 877 C780.40625694 878.20849424 774.52998739 878.64018551 768.5625 879.0625 C766.43855371 879.21666767 764.31483889 879.37406826 762.19140625 879.53515625 C761.26529541 879.600979 760.33918457 879.66680176 759.38500977 879.73461914 C756.85561689 879.9318081 756.85561689 879.9318081 754 881 C749.30398868 881.3817698 744.60222265 881.5515134 739.89428711 881.72241211 C738.34117861 881.78241599 736.7883912 881.85141259 735.23608398 881.92944336 C732.99235415 882.04207036 730.74902533 882.12753229 728.50390625 882.20703125 C727.46623863 882.26610405 727.46623863 882.26610405 726.40760803 882.32637024 C723.41794034 882.40491481 721.38996249 882.23819697 718.81602502 880.66598392 C715.89744388 876.38141168 716.45817178 872.031899 716.50780869 866.96608353 C716.50319331 865.82181591 716.49857793 864.6775483 716.49382269 863.49860591 C716.48502812 860.30783574 716.49426832 857.11769092 716.51093523 853.92697041 C716.52464808 850.46139752 716.51519346 846.99587721 716.50862527 843.53029418 C716.50032013 837.45172961 716.50692255 831.37332144 716.5231781 825.29477501 C716.54728255 816.256181 716.54852466 807.21768595 716.54501015 798.17906566 C716.5397498 782.97595783 716.55313812 767.77291946 716.57707977 752.56983185 C716.60073134 737.51242988 716.61614021 722.45505682 716.62049103 707.39763641 C716.62076599 706.4621273 716.62104094 705.52661818 716.62132424 704.5627603 C716.62267753 699.81196584 716.62388308 695.06117136 716.62503174 690.31037685 C716.63343795 656.64260784 716.66040012 622.97487662 716.69824219 589.30712891 C716.73496753 556.59521689 716.76330805 523.88331521 716.78027344 491.17138672 C716.78079954 490.16342508 716.78132565 489.15546345 716.78186769 488.11695752 C716.78714168 477.99478113 716.79224495 467.87260465 716.79722313 457.75042811 C716.80736854 437.12957766 716.81865355 416.50872789 716.83062744 395.88787842 C716.83145118 394.46564462 716.83145118 394.46564462 716.83229156 393.01467883 C716.84918712 363.94705757 716.87091382 334.87944271 716.8973999 305.81182861 C716.89815013 304.98641329 716.89890037 304.16099797 716.89967333 303.31057006 C716.93013775 269.87371044 716.9657112 236.43685586 717 203 C649.35 203.33 581.7 203.66 512 204 C511.67 297.39 511.34 390.78 511 487 C506 488 506 488 504.19921875 487.07421875 C502.7620166 485.75585502 501.37906362 484.37906362 500 483 C500 482.34 500 481.68 500 481 C498.68 480.34 497.36 479.68 496 479 C496 478.34 496 477.68 496 477 C495.01 476.67 494.02 476.34 493 476 C493 475.34 493 474.68 493 474 C491.68 473.34 490.36 472.68 489 472 C489 471.34 489 470.68 489 470 C488.41734375 469.731875 487.8346875 469.46375 487.234375 469.1875 C484.97213399 467.98519009 483.19423682 466.66174087 481.25 465 C480.63640625 464.484375 480.0228125 463.96875 479.390625 463.4375 C478 462 478 462 478 460 C477.401875 459.731875 476.80375 459.46375 476.1875 459.1875 C474.00152146 458.00082594 472.58667406 456.90400887 471 455 C471 454.34 471 453.68 471 453 C470.41734375 452.7421875 469.8346875 452.484375 469.234375 452.21875 C466.8197097 450.90165983 465.18259823 449.44911616 463.25 447.5 C462.63640625 446.8915625 462.0228125 446.283125 461.390625 445.65625 C460 444 460 444 460 442 C458.35 441.34 456.7 440.68 455 440 C455 439.34 455 438.68 455 438 C454.41089844 437.72671875 453.82179688 437.4534375 453.21484375 437.171875 C447.31029344 434.04777431 443.21625402 429.05950483 439 424 C437.15707515 422.37729888 435.27916562 420.82270706 433.35546875 419.296875 C432.90816406 418.86890625 432.46085937 418.4409375 432 418 C432 417.34 432 416.68 432 416 C431.4121875 415.72929688 430.824375 415.45859375 430.21875 415.1796875 C425.25126948 412.53852708 420.72860759 408.1760405 417 404 C417 403.34 417 402.68 417 402 C416.01 401.67 415.02 401.34 414 401 C414 400.34 414 399.68 414 399 C412.68 398.34 411.36 397.68 410 397 C410 396.34 410 395.68 410 395 C409.4121875 394.72929688 408.824375 394.45859375 408.21875 394.1796875 C403.25126948 391.53852708 398.72860759 387.1760405 395 383 C395 382.34 395 381.68 395 381 C394.43796875 380.76667969 393.8759375 380.53335937 393.296875 380.29296875 C390.43265858 378.68062924 388.52747979 376.6806438 386.25 374.3125 C382.58902754 370.57088938 378.85153951 367.0555499 374.875 363.65625 C372.32570281 361.40437081 369.96959039 358.98300039 367.58984375 356.5546875 C365.89361607 354.83996611 365.89361607 354.83996611 363.375 352.9375 C361 351 361 351 358.8125 348.25 C355.8492066 344.53172739 352.15685348 341.81065182 348.40234375 338.9296875 C346.08707916 337.06994651 343.98480285 335.20941102 342 333 C342 332.34 342 331.68 342 331 C340.68 330.34 339.36 329.68 338 329 C338 328.34 338 327.68 338 327 C337.401875 326.731875 336.80375 326.46375 336.1875 326.1875 C334.00152146 325.00082594 332.58667406 323.90400887 331 322 C331 321.34 331 320.68 331 320 C330.27095459 319.76063721 329.54190918 319.52127441 328.79077148 319.2746582 C325.58816073 317.81189635 323.79730201 316.1250242 321.34765625 313.60546875 C320.48849609 312.73212891 319.62933594 311.85878906 318.74414062 310.95898438 C317.85919922 310.04439453 316.97425781 309.12980469 316.0625 308.1875 C308.34352375 300.25273021 308.34352375 300.25273021 300 293 C298.31183067 291.35511706 296.64646685 289.68662458 295 288 C290.93462197 283.83666105 286.8277821 279.90580322 282.28515625 276.26171875 C281.86105469 275.84535156 281.43695312 275.42898438 281 275 C281 274.34 281 273.68 281 273 C279.68 272.34 278.36 271.68 277 271 C277 270.34 277 269.68 277 269 C276.01 268.67 275.02 268.34 274 268 C274 267.34 274 266.68 274 266 C273.45859375 265.773125 272.9171875 265.54625 272.359375 265.3125 C269.25767128 263.58704892 266.87299899 261.38706787 264.25 259 C263.74339844 258.54882812 263.23679687 258.09765625 262.71484375 257.6328125 C261.43454183 256.46639188 260.21208271 255.23716029 259 254 C259 253.34 259 252.68 259 252 C258.44183594 251.77054688 257.88367188 251.54109375 257.30859375 251.3046875 C254.37404392 249.64624479 252.39859647 247.55108478 250.0625 245.125 C247.51841348 242.49047455 245.07431879 240.05792949 242.18359375 237.8046875 C241.46300781 237.20914063 240.74242187 236.61359375 240 236 C240 235.34 240 234.68 240 234 C239.13181641 233.60554688 239.13181641 233.60554688 238.24609375 233.203125 C232.00104146 229.85794916 227.46665407 224.35998488 223 219 C219.58404537 215.79404258 216.02836962 212.7892139 212.3125 209.9375 C210.37235141 208.3119701 208.95490219 206.82057688 207.375 204.875 C205.13441618 201.88146585 205.13441618 201.88146585 202 200 C202 199.34 202 198.68 202 198 C200.68 197.34 199.36 196.68 198 196 C198 195.34 198 194.68 198 194 C197.01 193.67 196.02 193.34 195 193 C195 192.34 195 191.68 195 191 C193.68 190.34 192.36 189.68 191 189 C191 188.34 191 187.68 191 187 C189.68 186.67 188.36 186.34 187 186 C187 185.34 187 184.68 187 184 C186.44183594 183.77054688 185.88367188 183.54109375 185.30859375 183.3046875 C182.37404392 181.64624479 180.39859647 179.55108478 178.0625 177.125 C174.86215147 173.81088328 171.63511102 170.83001932 168 168 C165.6875 165.875 165.6875 165.875 164 164 C164 163.34 164 162.68 164 162 C163.360625 161.731875 162.72125 161.46375 162.0625 161.1875 C160 160 160 160 159 157 C157.67661368 156.31379969 156.34050052 155.65213539 155 155 C151.7080362 152.47849581 148.92352666 150.0290961 146.3125 146.8125 C144.12328275 143.87245245 144.12328275 143.87245245 141 142 C141 141.34 141 140.68 141 140 C140.01 139.67 139.02 139.34 138 139 C138 138.34 138 137.68 138 137 C137.4225 136.731875 136.845 136.46375 136.25 136.1875 C133.94449957 134.97070811 131.97943808 133.69666121 130 132 C130 131.34 130 130.68 130 130 C128.68 129.34 127.36 128.68 126 128 C126 127.34 126 126.68 126 126 C124.515 125.505 124.515 125.505 123 125 C123 124.34 123 123.68 123 123 C122.42765625 122.75636719 121.8553125 122.51273437 121.265625 122.26171875 C118.59566462 120.77482702 116.86170993 119.01916092 114.75 116.8125 C111.90085987 113.89341371 109.03629154 111.09011446 105.9375 108.4375 C102.40160951 105.40774095 99.1450647 102.16747761 95.8828125 98.84765625 C94.23154905 97.22722552 92.55336643 95.75791179 90.75 94.3125 C88 92 88 92 86.1875 89.6484375 C83.02018981 85.81372981 79.17477133 83.03270804 75.265625 79.98828125 C74.14414062 79.00408203 74.14414062 79.00408203 73 78 C73 77.34 73 76.68 73 76 C71.02 75.01 71.02 75.01 69 74 C69 73.34 69 72.68 69 72 C67.515 71.505 67.515 71.505 66 71 C63.8125 69.0625 63.8125 69.0625 62 67 C62 66.34 62 65.68 62 65 C61.41734375 64.731875 60.8346875 64.46375 60.234375 64.1875 C57.97213399 62.98519009 56.19423682 61.66174087 54.25 60 C53.63640625 59.484375 53.0228125 58.96875 52.390625 58.4375 C51 57 51 57 51 55 C49.68 54.34 48.36 53.68 47 53 C47 52.34 47 51.68 47 51 C46.401875 50.731875 45.80375 50.46375 45.1875 50.1875 C43.00152146 49.00082594 41.58667406 47.90400887 40 46 C40 45.34 40 44.68 40 44 C39.4225 43.73960937 38.845 43.47921875 38.25 43.2109375 C32.93779358 40.35193752 27.99153692 35.49047904 24 31 C24 30.34 24 29.68 24 29 C23.41089844 28.72671875 22.82179688 28.4534375 22.21484375 28.171875 C17.00528863 25.41549663 13.11342945 21.24756459 9.53125 16.63671875 C6.74362428 13.6570882 3.32338003 11.39143479 0.01171875 9.02734375 C-2 7 -2 7 -2.29296875 4.25390625 C-2.19628906 3.51011719 -2.09960938 2.76632813 -2 2 C-1.34 2 -0.68 2 0 2 C0 1.34 0 0.68 0 0 Z " fill="#F8DB00" transform="translate(298,169)"/>
<path d="M0 0 C0.99457718 0.00212242 0.99457718 0.00212242 2.00924683 0.00428772 C4.12860613 0.00988871 6.24786009 0.02244125 8.3671875 0.03515625 C9.80338389 0.04017113 11.23958194 0.04473406 12.67578125 0.04882812 C16.19795095 0.05985843 19.72005895 0.07712366 23.2421875 0.09765625 C23.99960401 3.46973643 24.36702803 6.58043051 24.366386 10.03394443 C24.36975694 11.49783379 24.36975694 11.49783379 24.37319598 12.99129668 C24.37056896 14.05788609 24.36794195 15.12447551 24.36523533 16.22338581 C24.36638917 17.36543052 24.36754302 18.50747523 24.36873183 19.68412736 C24.37092779 22.86379027 24.36862384 26.04341383 24.36445369 29.22307362 C24.36102185 32.67855969 24.36338984 36.1340425 24.36503118 39.58952922 C24.36710631 45.64880176 24.36545877 51.70806449 24.36139297 57.76733589 C24.35536403 66.77728535 24.35505661 75.7872286 24.35593496 84.7971797 C24.3572497 99.95250921 24.35390429 115.10783437 24.34791756 130.26316261 C24.34200375 145.27228632 24.33815226 160.28140821 24.33706474 175.29053307 C24.336996 176.22320075 24.33692726 177.15586843 24.33685644 178.11679878 C24.33651812 182.85320421 24.33621673 187.58960964 24.33592957 192.32601508 C24.33382827 225.88783616 24.32708843 259.44965487 24.31762695 293.01147461 C24.30844495 325.6195474 24.30136014 358.22761954 24.29711914 390.83569336 C24.29698761 391.84053536 24.29685609 392.84537736 24.29672058 393.88066911 C24.29540207 403.97155916 24.29412626 414.06244921 24.29288172 424.15333926 C24.2903454 444.71027369 24.28752414 465.26720808 24.28453064 485.82414246 C24.28439335 486.76935005 24.28425606 487.71455765 24.28411461 488.6884079 C24.27491148 551.824825 24.25906599 614.96124079 24.2421875 678.09765625 C25.78912434 678.09489087 25.78912434 678.09489087 27.36731243 678.09206963 C52.44638757 678.04769521 77.52545763 678.01481645 102.60456371 677.99403191 C114.73256512 677.98371383 126.86054061 677.96964332 138.98852539 677.94677734 C149.55772411 677.92685976 160.12690407 677.91394368 170.69612104 677.90947926 C176.29382322 677.90686912 181.89147172 677.90072307 187.48915672 677.88619614 C192.75611083 677.87263804 198.02298905 677.86843003 203.28995895 677.87144089 C205.22454427 677.87088993 207.15913208 677.86690197 209.09370232 677.8592453 C211.73262108 677.84931183 214.37125235 677.85168156 217.01017761 677.85714722 C218.16145221 677.84840869 218.16145221 677.84840869 219.33598489 677.83949363 C223.41365511 677.86235981 226.57257191 678.27723029 230.2421875 680.09765625 C230.24161792 679.19421838 230.24161792 679.19421838 230.24103683 678.27252924 C230.21867827 642.60763424 230.20151082 606.94274043 230.19112217 571.27783988 C230.1898714 566.99935418 230.18857709 562.72086849 230.18725586 558.44238281 C230.18699355 557.59058222 230.18673124 556.73878163 230.18646098 555.86116891 C230.1821049 542.05325059 230.1742177 528.24533642 230.1650347 514.43742056 C230.15569643 500.27835579 230.15013152 486.11929319 230.14809901 471.96022546 C230.14672414 463.21724138 230.14237551 454.47426901 230.13427103 445.73128854 C230.12900144 439.74294721 230.12738369 433.75461198 230.12868612 427.76626851 C230.12932917 424.30685749 230.12831575 420.84746701 230.12298203 417.38805962 C230.11804643 413.64464551 230.11918875 409.90128258 230.12193298 406.15786743 C230.11902014 405.05477285 230.1161073 403.95167827 230.11310619 402.81515658 C230.11509724 401.81840674 230.11708829 400.82165691 230.11913967 399.79470253 C230.11857009 398.49719816 230.11857009 398.49719816 230.117989 397.17348158 C230.2421875 395.09765625 230.2421875 395.09765625 231.2421875 393.09765625 C237.73008327 393.83913005 240.8624783 397.55759386 244.796875 402.45703125 C248.54149629 406.70768244 253.13321215 410.18762216 257.4921875 413.78515625 C259.88625027 415.7983454 262.15424714 417.7687997 264.2421875 420.09765625 C264.2421875 420.75765625 264.2421875 421.41765625 264.2421875 422.09765625 C265.2321875 422.42765625 266.2221875 422.75765625 267.2421875 423.09765625 C269.4296875 425.03515625 269.4296875 425.03515625 271.2421875 427.09765625 C271.2421875 427.75765625 271.2421875 428.41765625 271.2421875 429.09765625 C272.5621875 429.75765625 273.8821875 430.41765625 275.2421875 431.09765625 C275.2421875 431.75765625 275.2421875 432.41765625 275.2421875 433.09765625 C276.2321875 433.42765625 277.2221875 433.75765625 278.2421875 434.09765625 C278.2421875 434.75765625 278.2421875 435.41765625 278.2421875 436.09765625 C279.1084375 436.49984375 279.1084375 436.49984375 279.9921875 436.91015625 C282.29768793 438.12694814 284.26274942 439.40099504 286.2421875 441.09765625 C286.2421875 441.75765625 286.2421875 442.41765625 286.2421875 443.09765625 C286.83692871 443.36570068 287.43166992 443.63374512 288.04443359 443.90991211 C290.26031546 445.10745324 291.66298278 446.30084608 293.40625 448.1015625 C293.97085938 448.67712891 294.53546875 449.25269531 295.1171875 449.84570312 C295.9834375 450.74385742 295.9834375 450.74385742 296.8671875 451.66015625 C298.02378901 452.85115009 299.18254528 454.0400563 300.34375 455.2265625 C300.85244629 455.7532251 301.36114258 456.2798877 301.88525391 456.82250977 C303.23618855 458.21407795 303.23618855 458.21407795 305.2421875 459.09765625 C305.2421875 459.75765625 305.2421875 460.41765625 305.2421875 461.09765625 C305.81195312 461.33871094 306.38171875 461.57976562 306.96875 461.828125 C309.68502084 463.34494291 311.46663887 465.16528532 313.6171875 467.41015625 C316.15391522 470.01342109 318.64318819 472.52662312 321.4921875 474.78515625 C323.65001141 476.59968999 325.2396189 478.19260823 326.9921875 480.34765625 C328.94850634 483.12125563 328.94850634 483.12125563 331.2421875 484.09765625 C331.2421875 484.75765625 331.2421875 485.41765625 331.2421875 486.09765625 C331.81453125 486.35546875 332.386875 486.61328125 332.9765625 486.87890625 C335.45347745 488.21131567 337.3763041 489.74821743 339.4921875 491.59765625 C340.19859375 492.20609375 340.905 492.81453125 341.6328125 493.44140625 C343.2421875 495.09765625 343.2421875 495.09765625 343.2421875 497.09765625 C344.5621875 497.75765625 345.8821875 498.41765625 347.2421875 499.09765625 C347.2421875 499.75765625 347.2421875 500.41765625 347.2421875 501.09765625 C348.2321875 501.42765625 349.2221875 501.75765625 350.2421875 502.09765625 C350.2421875 502.75765625 350.2421875 503.41765625 350.2421875 504.09765625 C351.5621875 504.75765625 352.8821875 505.41765625 354.2421875 506.09765625 C354.2421875 506.75765625 354.2421875 507.41765625 354.2421875 508.09765625 C355.12729004 508.4994812 355.12729004 508.4994812 356.03027344 508.90942383 C358.26403208 510.10939108 359.80492175 511.36377638 361.6328125 513.109375 C362.56794678 513.99399414 362.56794678 513.99399414 363.52197266 514.89648438 C364.17214355 515.51974609 364.82231445 516.14300781 365.4921875 516.78515625 C366.83756961 518.06092172 368.18391417 519.33567302 369.53125 520.609375 C370.49466309 521.52082275 370.49466309 521.52082275 371.47753906 522.45068359 C373.5583446 524.39273037 375.6972072 526.25608293 377.8671875 528.09765625 C381.06273754 530.83471433 383.59818041 533.83152984 386.2421875 537.09765625 C386.9021875 537.42765625 387.5621875 537.75765625 388.2421875 538.09765625 C388.2421875 538.75765625 388.2421875 539.41765625 388.2421875 540.09765625 C388.81453125 540.35546875 389.386875 540.61328125 389.9765625 540.87890625 C392.45347745 542.21131567 394.3763041 543.74821743 396.4921875 545.59765625 C397.19859375 546.20609375 397.905 546.81453125 398.6328125 547.44140625 C400.2421875 549.09765625 400.2421875 549.09765625 400.2421875 551.09765625 C401.2321875 551.42765625 402.2221875 551.75765625 403.2421875 552.09765625 C405.4296875 554.03515625 405.4296875 554.03515625 407.2421875 556.09765625 C407.2421875 556.75765625 407.2421875 557.41765625 407.2421875 558.09765625 C408.5621875 558.75765625 409.8821875 559.41765625 411.2421875 560.09765625 C411.2421875 560.75765625 411.2421875 561.41765625 411.2421875 562.09765625 C412.2321875 562.42765625 413.2221875 562.75765625 414.2421875 563.09765625 C415.92981601 564.74309405 417.5962224 566.41054202 419.2421875 568.09765625 C420.2321875 568.75765625 421.2221875 569.41765625 422.2421875 570.09765625 C422.2421875 570.75765625 422.2421875 571.41765625 422.2421875 572.09765625 C423.5621875 572.75765625 424.8821875 573.41765625 426.2421875 574.09765625 C426.2421875 574.75765625 426.2421875 575.41765625 426.2421875 576.09765625 C427.2321875 576.42765625 428.2221875 576.75765625 429.2421875 577.09765625 C429.2421875 577.75765625 429.2421875 578.41765625 429.2421875 579.09765625 C430.5621875 579.75765625 431.8821875 580.41765625 433.2421875 581.09765625 C433.2421875 581.75765625 433.2421875 582.41765625 433.2421875 583.09765625 C434.12729004 583.4994812 434.12729004 583.4994812 435.03027344 583.90942383 C437.26403208 585.10939108 438.80492175 586.36377638 440.6328125 588.109375 C441.56794678 588.99399414 441.56794678 588.99399414 442.52197266 589.89648438 C443.17214355 590.51974609 443.82231445 591.14300781 444.4921875 591.78515625 C445.83756961 593.06092172 447.18391417 594.33567302 448.53125 595.609375 C449.49466309 596.52082275 449.49466309 596.52082275 450.47753906 597.45068359 C452.5583446 599.39273037 454.6972072 601.25608293 456.8671875 603.09765625 C459.16372278 605.0654034 461.14535699 607.06408739 463.0546875 609.41015625 C465.14099359 612.24335047 465.14099359 612.24335047 468.2421875 614.09765625 C468.2421875 614.75765625 468.2421875 615.41765625 468.2421875 616.09765625 C469.2321875 616.42765625 470.2221875 616.75765625 471.2421875 617.09765625 C472.93216073 618.74068578 474.59435144 620.41236937 476.2421875 622.09765625 C478.10519025 623.67791638 479.98664886 625.23017407 481.88671875 626.765625 C482.33402344 627.20519531 482.78132812 627.64476562 483.2421875 628.09765625 C483.2421875 628.75765625 483.2421875 629.41765625 483.2421875 630.09765625 C484.2321875 630.42765625 485.2221875 630.75765625 486.2421875 631.09765625 C486.2421875 631.75765625 486.2421875 632.41765625 486.2421875 633.09765625 C487.5621875 633.75765625 488.8821875 634.41765625 490.2421875 635.09765625 C490.2421875 635.75765625 490.2421875 636.41765625 490.2421875 637.09765625 C491.5621875 637.75765625 492.8821875 638.41765625 494.2421875 639.09765625 C494.2421875 639.75765625 494.2421875 640.41765625 494.2421875 641.09765625 C494.8403125 641.38640625 495.4384375 641.67515625 496.0546875 641.97265625 C498.2421875 643.09765625 498.2421875 643.09765625 501.2421875 645.09765625 C501.2421875 645.75765625 501.2421875 646.41765625 501.2421875 647.09765625 C502.5621875 647.75765625 503.8821875 648.41765625 505.2421875 649.09765625 C505.2421875 649.75765625 505.2421875 650.41765625 505.2421875 651.09765625 C506.1386499 651.50407349 506.1386499 651.50407349 507.05322266 651.91870117 C509.21406275 653.08250854 510.57062357 654.20714826 512.265625 655.9609375 C512.8121875 656.51845703 513.35875 657.07597656 513.921875 657.65039062 C514.48132813 658.23111328 515.04078125 658.81183594 515.6171875 659.41015625 C518.84754659 662.74240751 522.02814217 665.98792569 525.65625 668.890625 C526.50960937 669.61894531 527.36296875 670.34726563 528.2421875 671.09765625 C528.2421875 671.75765625 528.2421875 672.41765625 528.2421875 673.09765625 C529.2321875 673.42765625 530.2221875 673.75765625 531.2421875 674.09765625 C531.2421875 674.75765625 531.2421875 675.41765625 531.2421875 676.09765625 C532.1084375 676.48824219 532.1084375 676.48824219 532.9921875 676.88671875 C538.30439392 679.74571873 543.25065058 684.60717721 547.2421875 689.09765625 C547.2421875 689.75765625 547.2421875 690.41765625 547.2421875 691.09765625 C548.2321875 691.42765625 549.2221875 691.75765625 550.2421875 692.09765625 C551.93216073 693.74068578 553.59435144 695.41236937 555.2421875 697.09765625 C557.10519025 698.67791638 558.98664886 700.23017407 560.88671875 701.765625 C561.33402344 702.20519531 561.78132813 702.64476562 562.2421875 703.09765625 C562.2421875 703.75765625 562.2421875 704.41765625 562.2421875 705.09765625 C563.5621875 705.75765625 564.8821875 706.41765625 566.2421875 707.09765625 C566.2421875 707.75765625 566.2421875 708.41765625 566.2421875 709.09765625 C567.2321875 709.42765625 568.2221875 709.75765625 569.2421875 710.09765625 C569.2421875 710.75765625 569.2421875 711.41765625 569.2421875 712.09765625 C570.5621875 712.75765625 571.8821875 713.41765625 573.2421875 714.09765625 C573.2421875 714.75765625 573.2421875 715.41765625 573.2421875 716.09765625 C573.80292969 716.34128906 574.36367187 716.58492187 574.94140625 716.8359375 C577.68948524 718.34294856 579.74255757 720.1696484 582.0546875 722.28515625 C582.93253906 723.08824219 583.81039062 723.89132812 584.71484375 724.71875 C587.42471399 727.26946249 590.04978087 729.88755184 592.65625 732.54296875 C594.16951571 734.02641641 595.72702651 735.38222011 597.3671875 736.72265625 C600.18061317 739.0467905 602.77290718 741.41049825 605.2421875 744.09765625 C605.2421875 744.75765625 605.2421875 745.41765625 605.2421875 746.09765625 C605.9021875 746.09765625 606.5621875 746.09765625 607.2421875 746.09765625 C607.2421875 746.75765625 607.2421875 747.41765625 607.2421875 748.09765625 C607.81453125 748.35546875 608.386875 748.61328125 608.9765625 748.87890625 C611.45347745 750.21131567 613.3763041 751.74821743 615.4921875 753.59765625 C616.19859375 754.20609375 616.905 754.81453125 617.6328125 755.44140625 C619.2421875 757.09765625 619.2421875 757.09765625 619.2421875 759.09765625 C620.2321875 759.42765625 621.2221875 759.75765625 622.2421875 760.09765625 C624.4296875 762.03515625 624.4296875 762.03515625 626.2421875 764.09765625 C626.2421875 764.75765625 626.2421875 765.41765625 626.2421875 766.09765625 C627.5621875 766.75765625 628.8821875 767.41765625 630.2421875 768.09765625 C630.2421875 768.75765625 630.2421875 769.41765625 630.2421875 770.09765625 C631.2321875 770.42765625 632.2221875 770.75765625 633.2421875 771.09765625 C633.2421875 771.75765625 633.2421875 772.41765625 633.2421875 773.09765625 C633.8196875 773.36578125 634.3971875 773.63390625 634.9921875 773.91015625 C637.29768793 775.12694814 639.26274942 776.40099504 641.2421875 778.09765625 C641.2421875 778.75765625 641.2421875 779.41765625 641.2421875 780.09765625 C641.8309668 780.36191406 642.41974609 780.62617187 643.02636719 780.8984375 C645.32291334 782.14134569 646.85051916 783.44772106 648.6953125 785.28515625 C649.3140625 785.90132812 649.9328125 786.5175 650.5703125 787.15234375 C651.52164062 788.11527344 651.52164062 788.11527344 652.4921875 789.09765625 C653.141875 789.73960937 653.7915625 790.3815625 654.4609375 791.04296875 C655.07453125 791.65914062 655.688125 792.2753125 656.3203125 792.91015625 C656.88137695 793.47347656 657.44244141 794.03679688 658.02050781 794.6171875 C659.2421875 796.09765625 659.2421875 796.09765625 659.2421875 798.09765625 C660.8921875 798.75765625 662.5421875 799.41765625 664.2421875 800.09765625 C664.2421875 800.75765625 664.2421875 801.41765625 664.2421875 802.09765625 C664.81195312 802.33871094 665.38171875 802.57976563 665.96875 802.828125 C668.68502084 804.34494291 670.46663887 806.16528532 672.6171875 808.41015625 C676.01653715 811.89323373 679.47247327 815.0292842 683.2421875 818.09765625 C685.6171875 820.28515625 685.6171875 820.28515625 687.2421875 822.09765625 C687.2421875 822.75765625 687.2421875 823.41765625 687.2421875 824.09765625 C687.7784375 824.32453125 688.3146875 824.55140625 688.8671875 824.78515625 C693.964564 827.60212747 698.32117517 831.83067225 702.2421875 836.09765625 C702.2421875 836.75765625 702.2421875 837.41765625 702.2421875 838.09765625 C703.2321875 838.42765625 704.2221875 838.75765625 705.2421875 839.09765625 C705.2421875 839.75765625 705.2421875 840.41765625 705.2421875 841.09765625 C706.5621875 841.75765625 707.8821875 842.41765625 709.2421875 843.09765625 C709.2421875 843.75765625 709.2421875 844.41765625 709.2421875 845.09765625 C709.8403125 845.36578125 710.4384375 845.63390625 711.0546875 845.91015625 C713.24066604 847.09683031 714.65551344 848.19364738 716.2421875 850.09765625 C716.2421875 850.75765625 716.2421875 851.41765625 716.2421875 852.09765625 C716.8196875 852.36578125 717.3971875 852.63390625 717.9921875 852.91015625 C720.29768793 854.12694814 722.26274942 855.40099504 724.2421875 857.09765625 C724.2421875 857.75765625 724.2421875 858.41765625 724.2421875 859.09765625 C725.2321875 859.42765625 726.2221875 859.75765625 727.2421875 860.09765625 C727.2421875 860.75765625 727.2421875 861.41765625 727.2421875 862.09765625 C727.79648438 862.32324219 728.35078125 862.54882812 728.921875 862.78125 C731.92724905 864.48631911 733.97205753 866.67565576 736.3671875 869.16015625 C739.48324515 872.56219108 739.48324515 872.56219108 743.2421875 875.09765625 C743.2849085 876.7637753 743.28282582 878.4314851 743.2421875 880.09765625 C741.59770669 881.74213706 739.70954177 881.22402279 737.44246083 881.22530675 C736.39495504 881.22832272 735.34744924 881.23133869 734.26820084 881.23444605 C733.10089182 881.23267658 731.93358279 881.23090711 730.73090076 881.22908401 C729.49848855 881.23113665 728.26607634 881.23318928 726.99631831 881.23530412 C723.54430035 881.24001735 720.092334 881.24019257 716.64031658 881.23852653 C712.89598505 881.23779878 709.15166066 881.24281056 705.40733212 881.24710155 C697.96578827 881.25470346 690.52425159 881.25687573 683.08270426 881.2574306 C674.1734328 881.25834223 665.26416802 881.26500426 656.35489943 881.27177742 C634.80341401 881.28786946 613.25192927 881.29374654 591.70043893 881.29852617 C581.49655486 881.30086124 571.29267136 881.30446404 561.08878773 881.30822155 C526.13968164 881.32106653 491.19057587 881.33177966 456.24146748 881.33522415 C454.0454398 881.33544578 451.84941213 881.33566757 449.65338446 881.3358895 C447.4520651 881.33611014 445.25074574 881.33633063 443.04942638 881.33655095 C438.63329271 881.3369935 434.21715905 881.33744061 429.80102539 881.33789062 C428.7060729 881.33800002 427.61112041 881.33810941 426.48298754 881.33822211 C391.05794101 881.34184475 355.63291505 881.35772984 320.20787639 881.38108099 C282.73362812 881.40573751 245.25939158 881.41939992 207.78513497 881.42059207 C203.66160373 881.42076351 199.53807249 881.42097893 195.41454124 881.4212265 C193.89160598 881.42131015 193.89160598 881.42131015 192.33790434 881.4213955 C176.06500632 881.42254164 159.79212951 881.43352743 143.51923862 881.44811356 C127.11773843 881.462559 110.71626512 881.46567074 94.3147603 881.45767358 C85.44542903 881.45363863 76.57616266 881.45426482 67.70684052 881.46873093 C-1.47258755 881.57689549 -1.47258755 881.57689549 -31.7578125 878.09765625 C-31.7578125 877.43765625 -31.7578125 876.77765625 -31.7578125 876.09765625 C-32.52222656 876.12085938 -33.28664063 876.1440625 -34.07421875 876.16796875 C-42.78805116 876.31477218 -51.18576862 875.66766963 -59.7578125 874.09765625 C-60.0878125 873.76765625 -60.4178125 873.43765625 -60.7578125 873.09765625 C-63.31836003 872.59818399 -65.87204087 872.14626403 -68.4453125 871.72265625 C-89.18574141 868.17887793 -89.18574141 868.17887793 -96.7578125 865.09765625 C-98.14635786 864.77306123 -99.54284124 864.48052151 -100.9453125 864.22265625 C-105.26327963 863.31624001 -109.10561415 861.80120247 -113.1640625 860.09765625 C-115.79783493 859.08222592 -118.39749822 858.35184492 -121.1328125 857.66015625 C-126.1233811 856.36191043 -130.70939223 854.53527323 -135.4375 852.4921875 C-139.93010014 850.60529544 -144.48967634 848.92012245 -149.06323242 847.2409668 C-153.3577009 845.65542539 -157.56311568 843.93181864 -161.7578125 842.09765625 C-161.7578125 841.43765625 -161.7578125 840.77765625 -161.7578125 840.09765625 C-162.63630859 839.98663574 -163.51480469 839.87561523 -164.41992188 839.76123047 C-167.78718087 839.0918178 -170.15027927 838.09328822 -173.1640625 836.48046875 C-174.65099609 835.69349609 -174.65099609 835.69349609 -176.16796875 834.890625 C-177.69744141 834.06498047 -177.69744141 834.06498047 -179.2578125 833.22265625 C-181.28890549 832.14163204 -183.32015102 831.06089436 -185.3515625 829.98046875 C-186.29257812 829.47676758 -187.23359375 828.97306641 -188.203125 828.45410156 C-191.03224736 826.95194141 -193.88127157 825.50637321 -196.7578125 824.09765625 C-196.7578125 823.43765625 -196.7578125 822.77765625 -196.7578125 822.09765625 C-197.5415625 821.95328125 -198.3253125 821.80890625 -199.1328125 821.66015625 C-201.7578125 821.09765625 -201.7578125 821.09765625 -203.7578125 820.09765625 C-203.7578125 819.43765625 -203.7578125 818.77765625 -203.7578125 818.09765625 C-205.4078125 817.76765625 -207.0578125 817.43765625 -208.7578125 817.09765625 C-208.7578125 816.43765625 -208.7578125 815.77765625 -208.7578125 815.09765625 C-210.7378125 814.43765625 -212.7178125 813.77765625 -214.7578125 813.09765625 C-214.7578125 812.43765625 -214.7578125 811.77765625 -214.7578125 811.09765625 C-215.2734375 811.01515625 -215.7890625 810.93265625 -216.3203125 810.84765625 C-219.80236982 809.776254 -222.62982135 807.9624202 -225.7578125 806.09765625 C-225.7578125 805.43765625 -225.7578125 804.77765625 -225.7578125 804.09765625 C-226.4796875 803.82953125 -227.2015625 803.56140625 -227.9453125 803.28515625 C-235.19443222 800.22441681 -235.19443222 800.22441681 -236.7578125 797.09765625 C-238.41531977 796.08254668 -240.08433577 795.08621754 -241.7578125 794.09765625 C-244.0736825 792.46827877 -246.3224834 790.75673774 -248.5703125 789.03515625 C-249.16779297 788.58849609 -249.76527344 788.14183594 -250.38085938 787.68164062 C-251.87887437 786.53630116 -253.32356807 785.32190881 -254.7578125 784.09765625 C-254.7578125 783.43765625 -254.7578125 782.77765625 -254.7578125 782.09765625 C-255.58152344 781.99710938 -255.58152344 781.99710938 -256.421875 781.89453125 C-259.72878107 780.76642283 -261.60546424 778.74049578 -264.1328125 776.34765625 C-267.17297562 773.49877515 -270.17935639 770.68547828 -273.4453125 768.09765625 C-274.2084375 767.43765625 -274.9715625 766.77765625 -275.7578125 766.09765625 C-275.7578125 765.43765625 -275.7578125 764.77765625 -275.7578125 764.09765625 C-277.0778125 763.76765625 -278.3978125 763.43765625 -279.7578125 763.09765625 C-279.7578125 762.43765625 -279.7578125 761.77765625 -279.7578125 761.09765625 C-281.0778125 760.43765625 -282.3978125 759.77765625 -283.7578125 759.09765625 C-283.7578125 758.43765625 -283.7578125 757.77765625 -283.7578125 757.09765625 C-284.7478125 756.76765625 -285.7378125 756.43765625 -286.7578125 756.09765625 C-286.7578125 755.43765625 -286.7578125 754.77765625 -286.7578125 754.09765625 C-288.0778125 753.43765625 -289.3978125 752.77765625 -290.7578125 752.09765625 C-290.7578125 751.43765625 -290.7578125 750.77765625 -290.7578125 750.09765625 C-291.7478125 749.76765625 -292.7378125 749.43765625 -293.7578125 749.09765625 C-293.7578125 748.43765625 -293.7578125 747.77765625 -293.7578125 747.09765625 C-295.0778125 746.43765625 -296.3978125 745.77765625 -297.7578125 745.09765625 C-297.7578125 744.43765625 -297.7578125 743.77765625 -297.7578125 743.09765625 C-298.7478125 742.76765625 -299.7378125 742.43765625 -300.7578125 742.09765625 C-301.3559375 741.19015625 -301.9540625 740.28265625 -302.5703125 739.34765625 C-304.54680754 736.41114934 -306.36801958 734.72634515 -309.1171875 732.57421875 C-311.8271729 730.13523189 -313.89694556 727.22464551 -316.078125 724.31640625 C-317.55602623 722.36420183 -319.09148199 720.50863887 -320.6953125 718.66015625 C-322.7578125 716.09765625 -322.7578125 716.09765625 -322.7578125 714.09765625 C-323.4178125 714.09765625 -324.0778125 714.09765625 -324.7578125 714.09765625 C-325.0259375 713.49953125 -325.2940625 712.90140625 -325.5703125 712.28515625 C-326.771936 710.07163927 -327.9551612 708.83097481 -329.7578125 707.09765625 C-333.7578125 702.52622768 -333.7578125 702.52622768 -333.7578125 699.09765625 C-334.4178125 699.09765625 -335.0778125 699.09765625 -335.7578125 699.09765625 C-336.0878125 697.77765625 -336.4178125 696.45765625 -336.7578125 695.09765625 C-337.4178125 695.09765625 -338.0778125 695.09765625 -338.7578125 695.09765625 C-340.7578125 692.09765625 -340.7578125 692.09765625 -340.7578125 689.09765625 C-341.7478125 688.76765625 -342.7378125 688.43765625 -343.7578125 688.09765625 C-345.75177507 685.43681656 -347.7578125 682.485233 -347.7578125 679.09765625 C-348.4178125 679.09765625 -349.0778125 679.09765625 -349.7578125 679.09765625 C-350.59630054 677.64228057 -351.42845184 676.18325252 -352.2578125 674.72265625 C-352.721875 673.91054687 -353.1859375 673.0984375 -353.6640625 672.26171875 C-354.7578125 670.09765625 -354.7578125 670.09765625 -354.7578125 668.09765625 C-355.4178125 668.09765625 -356.0778125 668.09765625 -356.7578125 668.09765625 C-357.4178125 665.78765625 -358.0778125 663.47765625 -358.7578125 661.09765625 C-359.4178125 661.09765625 -360.0778125 661.09765625 -360.7578125 661.09765625 C-361.2528125 660.08703125 -361.7478125 659.07640625 -362.2578125 658.03515625 C-363.71476662 655.10013274 -365.23402511 652.20728754 -366.8046875 649.33203125 C-367.16626953 648.66695557 -367.52785156 648.00187988 -367.90039062 647.31665039 C-368.633479 645.97184695 -369.37169751 644.6298263 -370.11523438 643.29077148 C-372.7578125 638.43085051 -372.7578125 638.43085051 -372.7578125 635.09765625 C-373.4178125 635.09765625 -374.0778125 635.09765625 -374.7578125 635.09765625 C-377.51615438 629.05052214 -380.03631327 622.93187846 -382.47290039 616.74975586 C-383.97392183 612.97008673 -385.57683987 609.27101054 -387.3203125 605.59765625 C-390.78748964 598.1117056 -394.7578125 589.37891184 -394.7578125 581.09765625 C-395.4178125 581.09765625 -396.0778125 581.09765625 -396.7578125 581.09765625 C-399.71250175 571.31327547 -402.47740105 561.52541289 -404.86328125 551.5859375 C-405.70227918 548.13533267 -405.70227918 548.13533267 -406.80859375 544.98046875 C-407.72552975 542.19570016 -408.28803908 539.55010164 -408.7578125 536.66015625 C-409.23879404 533.70984982 -409.80093086 530.95928058 -410.69140625 528.1015625 C-412.37896901 522.3608775 -412.99766392 516.38446545 -413.8203125 510.47265625 C-414.08038086 508.68021484 -414.08038086 508.68021484 -414.34570312 506.8515625 C-415.34966524 499.75074235 -416.08121592 492.69305447 -416.50952148 485.53369141 C-416.49313558 483.1517457 -416.49313558 483.1517457 -417.7578125 482.09765625 C-418.8253928 472.2804115 -418.90675434 462.39167602 -418.890625 452.52734375 C-418.89130204 451.18987002 -418.89227535 449.85239641 -418.89352417 448.5149231 C-418.89498138 445.74024256 -418.89291069 442.96559465 -418.88818359 440.19091797 C-418.88247626 436.67377574 -418.8857844 433.15670971 -418.89175606 429.63957024 C-418.89540616 426.8871302 -418.89420308 424.13470762 -418.89162827 421.382267 C-418.89065813 419.4677246 -418.89363874 417.55318146 -418.89675903 415.63864136 C-418.83735581 393.17719956 -418.83735581 393.17719956 -416.7578125 391.09765625 C-416.49458281 389.44823416 -416.28958248 387.78945084 -416.109375 386.12890625 C-415.93426392 384.57115479 -415.93426392 384.57115479 -415.75561523 382.98193359 C-415.57107788 381.30671631 -415.57107788 381.30671631 -415.3828125 379.59765625 C-413.92251511 366.90437156 -412.30751366 354.39898427 -408.7578125 342.09765625 C-407.85004556 338.45953239 -406.99106777 334.81023609 -406.1328125 331.16015625 C-405.78863281 329.70512695 -405.78863281 329.70512695 -405.4375 328.22070312 C-404.87615741 325.84669173 -404.316299 323.47234085 -403.7578125 321.09765625 C-403.0978125 321.09765625 -402.4378125 321.09765625 -401.7578125 321.09765625 C-401.70173828 320.1540625 -401.70173828 320.1540625 -401.64453125 319.19140625 C-401.26835478 314.29373618 -400.61324547 310.12569537 -398.70703125 305.55078125 C-397.39659483 302.16413897 -396.37477811 298.69510678 -395.3203125 295.22265625 C-393.65888789 289.80713491 -391.85370708 284.52581805 -389.671875 279.29296875 C-388.27147078 275.92960477 -387.02305359 272.51380718 -385.7578125 269.09765625 C-385.0978125 269.09765625 -384.4378125 269.09765625 -383.7578125 269.09765625 C-383.6134375 268.16953125 -383.4690625 267.24140625 -383.3203125 266.28515625 C-382.7578125 263.09765625 -382.7578125 263.09765625 -381.7578125 260.09765625 C-381.0978125 260.09765625 -380.4378125 260.09765625 -379.7578125 260.09765625 C-379.4278125 258.11765625 -379.0978125 256.13765625 -378.7578125 254.09765625 C-378.0978125 254.09765625 -377.4378125 254.09765625 -376.7578125 254.09765625 C-376.6134375 253.16953125 -376.4690625 252.24140625 -376.3203125 251.28515625 C-375.7578125 248.09765625 -375.7578125 248.09765625 -374.7578125 245.09765625 C-374.0978125 245.09765625 -373.4378125 245.09765625 -372.7578125 245.09765625 C-372.6546875 244.21078125 -372.5515625 243.32390625 -372.4453125 242.41015625 C-371.74098247 239.01656612 -370.66301939 236.95546658 -368.7578125 234.09765625 C-368.4278125 233.43765625 -368.0978125 232.77765625 -367.7578125 232.09765625 C-367.0978125 232.09765625 -366.4378125 232.09765625 -365.7578125 232.09765625 C-365.64953125 231.370625 -365.54125 230.64359375 -365.4296875 229.89453125 C-364.7104255 226.90039407 -363.65105869 224.93958065 -362.0078125 222.34765625 C-359.9976544 219.11704502 -358.06419372 215.88399936 -356.2578125 212.53515625 C-352.16511013 205.10572838 -347.20087673 198.25113122 -342.2734375 191.359375 C-340.90923956 189.32362601 -339.79289001 187.31495465 -338.7578125 185.09765625 C-338.0978125 185.09765625 -337.4378125 185.09765625 -336.7578125 185.09765625 C-336.4278125 183.77765625 -336.0978125 182.45765625 -335.7578125 181.09765625 C-335.0978125 181.09765625 -334.4378125 181.09765625 -333.7578125 181.09765625 C-333.0978125 179.44765625 -332.4378125 177.79765625 -331.7578125 176.09765625 C-331.0978125 176.09765625 -330.4378125 176.09765625 -329.7578125 176.09765625 C-329.0978125 174.44765625 -328.4378125 172.79765625 -327.7578125 171.09765625 C-327.0978125 171.09765625 -326.4378125 171.09765625 -325.7578125 171.09765625 C-325.4278125 169.77765625 -325.0978125 168.45765625 -324.7578125 167.09765625 C-324.0978125 167.09765625 -323.4378125 167.09765625 -322.7578125 167.09765625 C-322.5309375 166.37578125 -322.3040625 165.65390625 -322.0703125 164.91015625 C-320.50571507 161.55744747 -318.39245077 159.66642856 -315.7578125 157.09765625 C-314.46261255 154.93145081 -314.46261255 154.93145081 -313.7578125 153.09765625 C-313.0978125 153.09765625 -312.4378125 153.09765625 -311.7578125 153.09765625 C-311.0978125 151.77765625 -310.4378125 150.45765625 -309.7578125 149.09765625 C-309.0978125 149.09765625 -308.4378125 149.09765625 -307.7578125 149.09765625 C-307.4278125 148.10765625 -307.0978125 147.11765625 -306.7578125 146.09765625 C-306.0978125 146.09765625 -305.4378125 146.09765625 -304.7578125 146.09765625 C-304.4278125 144.77765625 -304.0978125 143.45765625 -303.7578125 142.09765625 C-303.0978125 142.09765625 -302.4378125 142.09765625 -301.7578125 142.09765625 C-301.0978125 140.77765625 -300.4378125 139.45765625 -299.7578125 138.09765625 C-299.0978125 138.09765625 -298.4378125 138.09765625 -297.7578125 138.09765625 C-297.49355469 137.50887695 -297.22929687 136.92009766 -296.95703125 136.31347656 C-295.71412306 134.01693041 -294.40774769 132.48932459 -292.5703125 130.64453125 C-291.64605469 129.71640625 -291.64605469 129.71640625 -290.703125 128.76953125 C-290.06117188 128.1353125 -289.41921875 127.50109375 -288.7578125 126.84765625 C-288.11585938 126.19796875 -287.47390625 125.54828125 -286.8125 124.87890625 C-286.19632813 124.2653125 -285.58015625 123.65171875 -284.9453125 123.01953125 C-284.38199219 122.4584668 -283.81867188 121.89740234 -283.23828125 121.31933594 C-281.7578125 120.09765625 -281.7578125 120.09765625 -279.7578125 120.09765625 C-279.4278125 119.10765625 -279.0978125 118.11765625 -278.7578125 117.09765625 C-276.77091519 115.7448751 -274.77036032 114.4119732 -272.7578125 113.09765625 C-271.7678125 111.61265625 -271.7678125 111.61265625 -270.7578125 110.09765625 C-270.0978125 110.09765625 -269.4378125 110.09765625 -268.7578125 110.09765625 C-268.4278125 109.10765625 -268.0978125 108.11765625 -267.7578125 107.09765625 C-265.6953125 106.41015625 -265.6953125 106.41015625 -263.7578125 106.09765625 C-263.7578125 105.43765625 -263.7578125 104.77765625 -263.7578125 104.09765625 C-258.40066964 99.09765625 -258.40066964 99.09765625 -254.7578125 99.09765625 C-254.5103125 98.49953125 -254.2628125 97.90140625 -254.0078125 97.28515625 C-252.57708725 94.78138706 -251.1886543 93.61693237 -248.7578125 92.09765625 C-248.0978125 92.09765625 -247.4378125 92.09765625 -246.7578125 92.09765625 C-246.4278125 91.10765625 -246.0978125 90.11765625 -245.7578125 89.09765625 C-243.79282928 87.71323625 -241.78732785 86.38561791 -239.7578125 85.09765625 C-238.8709375 84.35515625 -237.9840625 83.61265625 -237.0703125 82.84765625 C-234.7578125 81.09765625 -234.7578125 81.09765625 -231.7578125 81.09765625 C-231.7578125 80.43765625 -231.7578125 79.77765625 -231.7578125 79.09765625 C-230.078125 77.80859375 -230.078125 77.80859375 -227.8828125 76.47265625 C-227.16351563 76.02664063 -226.44421875 75.580625 -225.703125 75.12109375 C-223.7578125 74.09765625 -223.7578125 74.09765625 -221.7578125 74.09765625 C-221.7578125 73.43765625 -221.7578125 72.77765625 -221.7578125 72.09765625 C-219.11042334 70.63702775 -217.86332916 70.09765625 -214.7578125 70.09765625 C-214.4278125 69.10765625 -214.0978125 68.11765625 -213.7578125 67.09765625 C-212.7678125 67.09765625 -211.7778125 67.09765625 -210.7578125 67.09765625 C-210.7578125 66.43765625 -210.7578125 65.77765625 -210.7578125 65.09765625 C-208.25918126 63.67853074 -205.75896969 62.26231785 -203.2578125 60.84765625 C-202.56171875 60.45191406 -201.865625 60.05617188 -201.1484375 59.6484375 C-187.77984119 52.09765625 -187.77984119 52.09765625 -184.7578125 52.09765625 C-184.7578125 51.43765625 -184.7578125 50.77765625 -184.7578125 50.09765625 C-182.99025724 49.25739229 -181.21863987 48.42566903 -179.4453125 47.59765625 C-178.45917969 47.13359375 -177.47304688 46.66953125 -176.45703125 46.19140625 C-173.7578125 45.09765625 -173.7578125 45.09765625 -170.7578125 45.09765625 C-170.7578125 44.43765625 -170.7578125 43.77765625 -170.7578125 43.09765625 C-169.79101562 42.72253906 -168.82421875 42.34742188 -167.828125 41.9609375 C-161.84412198 39.61525145 -155.94658654 37.29686015 -150.2578125 34.28515625 C-146.3404831 32.24133222 -143.15817382 31.38463634 -138.7578125 31.09765625 C-138.7578125 30.43765625 -138.7578125 29.77765625 -138.7578125 29.09765625 C-138.14035156 28.9275 -137.52289063 28.75734375 -136.88671875 28.58203125 C-132.5621334 27.34455477 -128.44702421 26.03654624 -124.3828125 24.09765625 C-119.90738986 22.01124925 -115.36108823 20.88939815 -110.5546875 19.80859375 C-107.82484937 19.11469635 -105.35416788 18.17947099 -102.7578125 17.09765625 C-88.37114583 12.67098958 -88.37114583 12.67098958 -81.7578125 13.09765625 C-81.7578125 12.43765625 -81.7578125 11.77765625 -81.7578125 11.09765625 C-79.82228516 10.80761719 -79.82228516 10.80761719 -77.84765625 10.51171875 C-76.13017215 10.2489343 -74.41272623 9.98590021 -72.6953125 9.72265625 C-71.84775391 9.59632813 -71.00019531 9.47 -70.12695312 9.33984375 C-65.1986952 8.57872283 -60.55367878 7.49038048 -55.7578125 6.09765625 C-53.97222852 5.85908649 -52.17957253 5.66507582 -50.3828125 5.53515625 C-47.2652115 5.53255355 -47.2652115 5.53255355 -44.7578125 4.09765625 C-42.12057728 3.807144 -39.50021828 3.57426828 -36.85546875 3.37890625 C-36.06256943 3.31610474 -35.2696701 3.25330322 -34.45274353 3.18859863 C-31.90891611 2.98729811 -29.36469193 2.79184709 -26.8203125 2.59765625 C-23.47747185 2.3419957 -20.13512836 2.08080265 -16.79296875 1.81640625 C-16.01897232 1.75908325 -15.24497589 1.70176025 -14.44752502 1.6427002 C-9.35505013 1.23977753 -5.16768949 -0.02171298 0 0 Z " fill="#F8DA00" transform="translate(463.7578125,419.90234375)"/>
</svg>
